<svg width="104" height="114" fill="none" xmlns="http://www.w3.org/2000/svg"><g opacity=".15" fill="#00ACC2"><path d="M57.424 70.91H19.601c-2.996 0-5.449 2.464-5.449 5.475v39.573c0 3.866 3.129 7 6.995 7H58.06c1.282 0 1.282-1.384 1.282-1.384V72.771s0-1.86-1.918-1.86zM108.288 70.91H70.503c-2.301 0-1.956 2.408-1.956 2.408v48.3s-.019 1.338 1.365 1.338h38.375c2.997 0 5.449-2.463 5.449-5.475V76.385c.001-3.011-2.452-5.475-5.448-5.475zM59.343 35.684s0-1.856-1.825-1.856H13.449C10.452 33.828 8 36.292 8 39.303v17.092c0 3.012 2.452 5.475 5.45 5.475h44.217c1.675 0 1.675-1.46 1.675-1.46V35.684zM114.44 33.828H70.231c-1.684 0-1.684 1.612-1.684 1.612v25.004s0 1.426 2.047 1.426h43.846c2.997 0 5.449-2.463 5.449-5.475V39.303c0-3.01-2.452-5.475-5.449-5.475zM40.808 26.853c-2.493 0-4.77-.199-6.767-.59-5.072-.996-8.558-2.934-10.657-5.925-1.88-2.68-2.457-5.984-1.711-9.82C22.978 3.806 27.463.11 34.303.11c1.448 0 3.037.168 4.725.5 4.294.843 9.786 3.317 14.691 6.618 8.323 5.601 8.735 9.083 8.32 11.216-.609 3.133-3.523 5.371-8.91 6.844-3.638.995-8.129 1.566-12.32 1.566zM34.304 8.885c-2.65 0-3.56.744-4.06 3.316-.408 2.102.108 2.837.277 3.078.708 1.01 2.553 1.851 5.195 2.37 1.425.28 3.187.427 5.092.427 4.19 0 7.88-.637 10.33-1.335.177-.05.454-.263.157-.44-3.201-2.621-9.059-6.12-13.941-7.08-1.138-.222-2.164-.336-3.05-.336zM87.206 26.853h-.001c-4.192 0-8.683-.571-12.322-1.566-5.386-1.473-8.3-3.712-8.91-6.844-.413-2.133-.002-5.615 8.321-11.216C79.2 3.926 84.691 1.452 88.986.609c1.688-.332 3.277-.5 4.724-.5 6.84 0 11.326 3.697 12.63 10.41.746 3.835.171 7.14-1.711 9.82-2.099 2.99-5.584 4.928-10.657 5.923-1.996.392-4.274.59-6.766.59zM76.788 16.246c-.284.166-.147.427 0 .47 2.449.707 6.178 1.36 10.417 1.36 1.906 0 3.666-.148 5.092-.428 2.642-.518 4.488-1.36 5.195-2.369.17-.241.686-.976.276-3.078-.5-2.572-1.41-3.316-4.059-3.316-.886 0-1.911.114-3.05.337-4.883.958-10.67 4.403-13.871 7.024z"/></g></svg>