<svg width="92" height="114" fill="none" opacity=".2" xmlns="http://www.w3.org/2000/svg">
    <path
        d="M87.66 0H12.34C6.04 0 .914 5.126.914 11.426v107.148C.914 124.874 6.04 130 12.34 130h75.32c6.3 0 11.426-5.126 11.426-11.426V11.426C99.086 5.126 93.96 0 87.66 0zM16.426 22.433a3.056 3.056 0 0 1 3.047-3.047h62.073a3.056 3.056 0 0 1 3.047 3.047v11.616a3.055 3.055 0 0 1-3.047 3.046H19.473a3.056 3.056 0 0 1-3.047-3.046V22.433zm37.136 41.652h-7.123a3.809 3.809 0 0 1-3.809-3.809v-5.175a3.809 3.809 0 0 1 3.809-3.809h7.123a3.809 3.809 0 0 1 3.808 3.809v5.175a3.809 3.809 0 0 1-3.808 3.809zm3.808 15.549v5.175a3.809 3.809 0 0 1-3.808 3.809h-7.123a3.809 3.809 0 0 1-3.809-3.809v-5.175a3.808 3.808 0 0 1 3.809-3.809h7.123a3.809 3.809 0 0 1 3.808 3.809zm-27.224 29.708a3.81 3.81 0 0 1-3.808 3.809h-7.123a3.81 3.81 0 0 1-3.809-3.809v-5.175a3.809 3.809 0 0 1 3.809-3.809h7.123a3.809 3.809 0 0 1 3.808 3.809v5.175zm0-24.533a3.809 3.809 0 0 1-3.808 3.809h-7.123a3.809 3.809 0 0 1-3.809-3.809v-5.175a3.809 3.809 0 0 1 3.809-3.809h7.123a3.809 3.809 0 0 1 3.808 3.809v5.175zm0-24.533a3.809 3.809 0 0 1-3.808 3.809h-7.123a3.809 3.809 0 0 1-3.809-3.809v-5.175a3.809 3.809 0 0 1 3.809-3.809h7.123a3.809 3.809 0 0 1 3.808 3.809v5.175zm54.447 49.066a3.81 3.81 0 0 1-3.808 3.809H46.438a3.81 3.81 0 0 1-3.808-3.809v-5.175a3.808 3.808 0 0 1 3.808-3.809h34.347a3.809 3.809 0 0 1 3.808 3.809v5.175zm0-24.533a3.809 3.809 0 0 1-3.808 3.809h-7.123a3.809 3.809 0 0 1-3.809-3.809v-5.175a3.809 3.809 0 0 1 3.809-3.809h7.123a3.809 3.809 0 0 1 3.808 3.809v5.175zm0-24.533a3.809 3.809 0 0 1-3.808 3.809h-7.123a3.809 3.809 0 0 1-3.809-3.809v-5.175a3.809 3.809 0 0 1 3.809-3.809h7.123a3.809 3.809 0 0 1 3.808 3.809v5.175z"
        fill="#fff"/>
</svg>