<svg width="48" height="45" fill="none" xmlns="http://www.w3.org/2000/svg">
    <path
        d="M31.813 11.89a6.257 6.257 0 0 1 6.25 6.25 6.257 6.257 0 0 1-6.25 6.25 6.257 6.257 0 0 1-6.25-6.25 6.257 6.257 0 0 1 6.25-6.25zm2.343 10.732V13.66l-6.723 4.482 6.723 4.481zM6.813.953h34.374a6.257 6.257 0 0 1 6.25 6.25v21.875a6.257 6.257 0 0 1-6.25 6.25H6.813a6.257 6.257 0 0 1-6.25-6.25V7.203a6.257 6.257 0 0 1 6.25-6.25zm25 26.563c5.17 0 9.375-4.206 9.375-9.375 0-5.17-4.206-9.375-9.376-9.375-5.17 0-9.375 4.205-9.375 9.375s4.206 9.375 9.375 9.375zm-25-1.563h12.5v-3.125h-12.5v3.125zm0-6.25h12.5v-3.125h-12.5v3.125zm0-6.25h12.5v-3.125h-12.5v3.125zm12.5 28.125v-3.125h9.375v3.125h6.25v3.125H13.061v-3.125h6.25z"
        fill="#D2E9EC"/>
</svg>
