<svg width="50" height="43" fill="none" xmlns="http://www.w3.org/2000/svg">
    <path
        d="M25 33.55a7.91 7.91 0 1 1 0-15.82 7.91 7.91 0 0 1 0 15.82zM13.448 5.621l.505-2.528A2.937 2.937 0 0 1 16.826.738h16.348c1.392 0 2.6.99 2.873 2.355l.506 2.528H13.448z"
        fill="#D8DAEB"/>
    <path
        d="M4.395 8.55h41.21A4.4 4.4 0 0 1 50 12.946v25.39a4.4 4.4 0 0 1-4.395 4.395H4.395A4.4 4.4 0 0 1 0 38.337v-25.39A4.4 4.4 0 0 1 4.395 8.55zM37.5 17.73h4.688a1.465 1.465 0 0 0 0-2.93H37.5a1.465 1.465 0 1 0 0 2.93zM25 36.48c5.977 0 10.84-4.862 10.84-10.84 0-5.977-4.863-10.84-10.84-10.84-5.977 0-10.84 4.863-10.84 10.84 0 5.978 4.863 10.84 10.84 10.84z"
        fill="#D8DAEB"/>
</svg>
