<svg width="169" height="160" fill="none" xmlns="http://www.w3.org/2000/svg"><g opacity=".1" clip-path="url(#a)" fill="#8C8C8C"><path d="M152.901 77.133a5.1 5.1 0 1 0 5.101 5.1 5.103 5.103 0 0 0-5.101-5.1zM112.097 117.935a5.1 5.1 0 1 0 0 10.2 5.1 5.1 0 0 0 0-10.2z"/><path d="M91.697 46.529c-8.438 0-15.302 6.863-15.302 15.3v92.769a5.098 5.098 0 0 0 5.101 5.101h20.401a5.1 5.1 0 1 1 0 10.201l-20.402-.001a5.1 5.1 0 0 0-5.1 5.101v8.17c0 8.438 6.863 15.301 15.3 15.301h81.608c8.437 0 15.3-6.863 15.3-15.301l.001-8.17a5.098 5.098 0 0 0-5.101-5.101h-20.401a5.097 5.097 0 0 1-5.101-5.1 5.098 5.098 0 0 1 5.1-5.1h20.401a5.098 5.098 0 0 0 5.101-5.101V61.83c0-8.438-6.864-15.301-15.301-15.301H91.697zm56.104 118.27a5.098 5.098 0 0 1-5.101 5.101h-20.401a5.097 5.097 0 0 1-5.101-5.101c0-2.819 2.281-5.1 5.101-5.1H142.7a5.098 5.098 0 0 1 5.101 5.1zm-20.403-41.765c0 8.438-6.862 15.301-15.3 15.301s-15.3-6.863-15.3-15.301c0-8.437 6.862-15.3 15.3-15.3s15.3 6.863 15.3 15.3zm39.947 2.83a5.098 5.098 0 0 1-7.072 1.415L99.069 86.475c-2.347-1.55-2.984-4.712-1.416-7.073a5.098 5.098 0 0 1 7.074-1.414l61.204 40.802a5.103 5.103 0 0 1 1.414 7.074zm.857-43.633c0 8.438-6.864 15.301-15.302 15.301-8.436 0-15.299-6.863-15.3-15.3 0-8.438 6.864-15.301 15.301-15.301 8.438 0 15.301 6.862 15.301 15.3z"/></g><defs><clipPath id="a"><path fill="#fff" transform="rotate(-45 147.87 61.25)" d="M0 0h187.383v187.383H0z"/></clipPath></defs></svg>