<svg width="44" height="50" fill="none" xmlns="http://www.w3.org/2000/svg">
    <path
        d="M26.703 11.4h-4.026V8.158c0-.81-.656-1.465-1.465-1.465h-.104V2.93h.104c1.943-.078 1.942-2.853 0-2.93h-9.414c-1.944.077-1.942 2.853 0 2.93h.104v3.763h-.104c-.81 0-1.465.656-1.465 1.465v15.69c0 .809.656 1.465 1.465 1.465h9.414c.809 0 1.465-.656 1.465-1.465v-3.242h4.026c9.512.377 9.493 13.95 0 14.329H7.091c-.81 0-1.465.656-1.465 1.465v7.74h21.077c9.027 0 16.37-7.343 16.37-16.37 0-9.027-7.343-16.37-16.37-16.37zm-5.491 9.205a4.608 4.608 0 0 1-4.603-4.602c.253-6.107 8.954-6.105 9.206 0a4.608 4.608 0 0 1-4.603 4.602z"
        fill="#D3E8D9"/>
    <path
        d="M19.643 31.172c.809 0 1.465-.656 1.465-1.465v-1.465h-9.206v1.465c0 .809.656 1.465 1.465 1.465h6.276zM30.626 47.07H2.384c-1.944.078-1.942 2.853 0 2.93h28.242c1.943-.077 1.942-2.853 0-2.93zM21.212 14.328c-.923 0-1.673.75-1.673 1.673.091 2.22 3.254 2.22 3.346 0 0-.922-.75-1.673-1.673-1.673z"
        fill="#D3E8D9"/>
</svg>
