<svg width="50" height="49" fill="none" xmlns="http://www.w3.org/2000/svg">
    <path
        d="M33.686 14.783V8.534h4.276v-4.16h-9.81v-2.94h16.096v2.94h-3.344v4.16h4.276v6.249H33.686zM50 40.976H28.866v-11.98H50v11.98zm-6.543-7.46H35.41v2.94h8.048v-2.94zM33.621 17.723h11.624A4.76 4.76 0 0 1 50 22.478v3.573H28.866v-3.573a4.76 4.76 0 0 1 4.755-4.755zM50 43.914H28.866v4.626H50v-4.626zM12.499 23.816a2.14 2.14 0 0 1-2.139-2.139A2.14 2.14 0 0 1 12.5 19.54a2.14 2.14 0 0 1 2.138 2.138 2.14 2.14 0 0 1-2.138 2.139zM3.572 39.11l-.377-7.063H21.78l-.377 7.064H3.573zM2.08 11.227 1.498.355h21.98l-.583 10.872H2.08z"
        fill="#EEDECC"/>
    <path
        d="m3.037 29.107-.8-14.939h20.501l-.8 14.939h-18.9zM12.5 16.599c-2.801 0-5.08 2.279-5.08 5.08 0 2.8 2.279 5.079 5.08 5.079 2.8 0 5.08-2.279 5.08-5.08 0-2.8-2.28-5.079-5.08-5.079zM21.323 42.055v3.39a3.395 3.395 0 0 1-3.39 3.392H7.043a3.395 3.395 0 0 1-3.391-3.391v-3.391h17.67zM3.572 39.113l.08 1.498v1.444H0v-2.942h3.572z"
        fill="#EEDECC"/>
</svg>
